<svg xmlns="http://www.w3.org/2000/svg" xmlns:xlink="http://www.w3.org/1999/xlink" viewBox="0 0 1200 1200"><defs><linearGradient id="Sfumatura_senza_nome" x1="1905.81" y1="-280.93" x2="1909.29" y2="-278.12" gradientTransform="matrix(197.31, 0, 0, -196.4, -375791.09, -54289.77)" gradientUnits="userSpaceOnUse"><stop offset="0" stop-color="#61a9fc"/><stop offset="1" stop-color="#315bce"/></linearGradient></defs><title>ual-icon</title><g id="Livello_2" data-name="Livello 2"><g id="Livello_1-2" data-name="Livello 1"><g id="Livello_1-2-2" data-name="Livello 1-2"><path d="M600,0h0c331.37,0,600,268.63,600,600h0c0,331.37-268.63,600-600,600h0C268.63,1200,0,931.37,0,600H0C0,268.63,268.63,0,600,0Z" style="fill:#131c32"/><g id="Livello_1-2-2-2" data-name="Livello 1-2-2"><g id="Group_4866" data-name="Group 4866"><g id="Group_4839" data-name="Group 4839"><path id="Path_1355" data-name="Path 1355" d="M721.93,929.28c-26.63,53.26-51.91,107.78-77.36,160.93a80.38,80.38,0,0,0-5.14,16.46,507.63,507.63,0,0,0,227.17-70.91c-27.93-39.31-51.91-74.81-77.35-111.62C763.77,891.21,739.68,893.81,721.93,929.28Z" style="fill:#f4f8fb"/><path id="Union_80" data-name="Union 80" d="M455.61,1090.34l-5.15-1.24-5.19-1.3-5.2-1.24a548.72,548.72,0,0,1-172.45-96.4A512.27,512.27,0,0,1,195.3,914.1C186.42,901.43,177.54,888.71,170,876c40.54-3.8,77.35-7.63,115.41-10.12,91.26-6.39,181.33-11.43,272.61-17.76,24.08-1.29,48.17-5.14,72.26-5.14,29.18,0,45.68,22.84,34.26,48.17-31.71,71-65.93,139.5-98.94,209.27,0,2.55-2.5,3.79-5.14,6.33A422.42,422.42,0,0,1,455.61,1090.34ZM893.19,961c-17.76-25.39-38.07-51.92-54.53-78.65a33.32,33.32,0,0,1,26.64-54.52c62.3-5.15,125.5-8.88,187.67-12.68a30.09,30.09,0,0,1,10.12,2.54A538.57,538.57,0,0,1,919.78,999.09ZM123.36,784.53a497.25,497.25,0,0,1-35.51-186.2,709.42,709.42,0,0,1,8.88-102.69c2.55-7.63,3.79-16.46,6.33-24.13,1.3-6.34,3.84-11.37,5.15-17.71l1.24-5.14c1.3,0,1.3-1.25,1.3-2.54A510.5,510.5,0,0,1,164,329.53a498.57,498.57,0,0,1,95.22-111.62c5.15-3.84,10.38-7.63,17.75-12.72,8.88,10.39,16.46,20.31,24.09,30.48,31.61,45.69,63.29,92.59,96.25,137.15a51.49,51.49,0,0,1,5.19,60.9c-17.75,35.51-35.51,72.27-51.92,109C338.91,566.7,344,585.7,363,593.29s36.81-1.26,48.24-24.1c8.88-16.46,15.2-32.92,24.08-49.38,16.46-30.47,43.15-33,63.39-5.14L643.33,720l5.14,6.34A39,39,0,0,1,651,761.94,32.68,32.68,0,0,1,619.3,778.4c-73.57,3.8-147.11,10.39-220.64,15.22C334,798.76,268,804,203.37,807.58a604,604,0,0,1-68.85,2.55c-3.58-7.63-7.42-16.46-11.21-25.39Zm700-43.1a35.73,35.73,0,0,1,0-27.93L993.28,357.21a32.55,32.55,0,0,1,14-15.2,33.64,33.64,0,0,1,44.36,14,518.75,518.75,0,0,1,45.65,366.53,33.66,33.66,0,0,1-29.12,25.34C999.67,753,929.9,756.72,861.42,760.5c-3.16,0-6,.32-8.56.32-16.05,0-21.86-4.05-29.49-19.32ZM691.56,674C634.45,589,573.61,505.24,514,421.59a50.13,50.13,0,0,1-6.39-57.08c41.84-87,83.79-175.8,125.29-263.28a125.43,125.43,0,0,0,9.08-14,552.4,552.4,0,0,1,168.71,44.39A517.39,517.39,0,0,1,971.65,245.84c-15.22,31.72-29.18,63.45-44.39,93.86-50.72,109.05-103.83,218.09-154.7,327.06-11.37,25.44-25.24,38.16-40.12,38.16-13.14.11-27.2-10.28-41-30.53ZM414.91,280C387.14,242,360.5,203.89,331.33,163.37c8.88-5.14,16.51-10.38,25.39-15.21A474.78,474.78,0,0,1,458.16,106.3a499.48,499.48,0,0,1,105.23-19h5.14c-16.46,38.06-31.71,69.76-45.67,98.89s-27.88,58.36-43.1,88.78c-8.09,16.24-20.19,24.5-32.75,24.5C435.94,299.44,424.51,293.05,414.91,280Z" style="fill:url(#Sfumatura_senza_nome)"/></g></g></g></g></g></g></svg>